<?xml version="1.0" standalone="no"?>
<!DOCTYPE svg PUBLIC "-//W3C//DTD SVG 20010904//EN"
 "http://www.w3.org/TR/2001/REC-SVG-20010904/DTD/svg10.dtd">
<svg version="1.0" xmlns="http://www.w3.org/2000/svg"
 width="96.000000pt" height="96.000000pt" viewBox="0 0 96.000000 96.000000"
 preserveAspectRatio="xMidYMid meet">
<metadata>
Created by potrace 1.16, written by Peter Selinger 2001-2019
</metadata>
<g transform="translate(0.000000,96.000000) scale(0.100000,-0.100000)"
fill="#000000" stroke="none">
<path d="M236 805 l-26 -24 0 -211 c0 -211 0 -211 25 -235 l24 -25 221 0 221
0 24 25 c24 23 25 30 25 143 0 110 -2 120 -22 138 -14 12 -18 14 -13 4 4 -8
-4 -4 -18 9 -15 14 -27 21 -27 17 0 -5 -13 6 -30 24 -16 18 -30 38 -30 46 0 7
-7 17 -16 22 -9 5 -15 12 -15 15 3 21 0 28 -9 22 -5 -3 -10 1 -10 10 0 8 -7
18 -15 21 -8 4 -12 10 -9 15 3 5 -55 9 -134 9 -134 0 -140 -1 -166 -25z m296
-81 c24 -25 44 -50 46 -54 2 -5 -12 -10 -30 -12 -30 -3 -33 -6 -36 -38 -2 -21
-14 -46 -30 -63 l-27 -29 -5 64 c-5 63 -5 63 -37 66 -18 2 -33 6 -33 10 0 9
93 102 102 102 4 0 27 -21 50 -46z m-192 -194 c0 -47 -4 -80 -10 -80 -6 0 -10
33 -10 80 0 47 4 80 10 80 6 0 10 -33 10 -80z m378 -28 l3 -93 -128 3 -128 3
-3 49 c-2 27 2 54 7 59 8 8 11 -4 11 -41 l0 -52 110 0 110 0 0 75 0 75 -86 0
c-56 0 -83 4 -79 10 4 7 41 10 93 8 l87 -3 3 -93z m-418 33 c0 -25 -4 -45 -10
-45 -11 0 -14 73 -3 83 11 12 13 8 13 -38z m80 -6 c0 -28 -4 -39 -15 -39 -11
0 -15 11 -15 38 0 21 3 42 6 45 14 13 24 -6 24 -44z m-115 -9 c-5 -8 -11 -8
-17 -2 -6 6 -7 16 -3 22 5 8 11 8 17 2 6 -6 7 -16 3 -22z m150 0 c-5 -8 -11
-8 -17 -2 -6 6 -7 16 -3 22 5 8 11 8 17 2 6 -6 7 -16 3 -22z m223 -18 c2 -7
-59 -42 -73 -42 -8 0 -6 76 2 83 7 7 66 -27 71 -41z"/>
<path d="M170 190 c0 -60 0 -60 29 -60 36 0 50 17 19 22 -20 3 -23 10 -26 51
-4 68 -22 58 -22 -13z"/>
<path d="M249 246 c-8 -8 3 -116 12 -116 5 0 9 27 8 60 -2 54 -7 69 -20 56z"/>
<path d="M370 190 c0 -33 4 -60 10 -60 6 0 10 13 10 29 0 16 6 31 14 34 19 8
26 -1 26 -35 0 -15 5 -28 10 -28 15 0 12 66 -4 79 -7 6 -21 9 -30 5 -12 -4
-16 0 -16 15 0 12 -4 21 -10 21 -6 0 -10 -27 -10 -60z"/>
<path d="M530 189 l0 -61 32 6 c44 9 55 22 41 45 -8 12 -8 22 -2 28 15 15 -17
43 -47 43 -23 0 -24 -3 -24 -61z m48 23 c2 -7 -3 -12 -12 -12 -9 0 -16 7 -16
16 0 17 22 14 28 -4z m10 -44 c-7 -19 -38 -22 -38 -4 0 10 9 16 21 16 12 0 19
-5 17 -12z"/>
<path d="M467 227 c-10 -26 8 -92 26 -95 9 -2 17 1 17 7 0 6 -4 11 -10 11 -14
0 -12 48 2 52 9 3 8 9 -4 21 -20 20 -24 21 -31 4z"/>
<path d="M289 204 c-20 -24 -6 -58 26 -65 24 -5 26 -7 13 -13 -9 -4 -22 -4
-29 0 -7 4 -10 2 -7 -7 3 -8 12 -15 22 -17 30 -6 46 18 46 68 0 45 -1 47 -30
47 -17 0 -35 -6 -41 -13z m46 -25 c0 -7 -8 -15 -17 -17 -18 -3 -25 18 -11 32
10 10 28 1 28 -15z"/>
<path d="M634 199 c-19 -22 -13 -43 19 -63 12 -8 21 -5 36 8 26 23 26 38 3 59
-24 22 -35 21 -58 -4z m45 -36 c-15 -18 -34 -1 -25 22 5 14 9 15 21 5 12 -10
13 -16 4 -27z"/>
<path d="M710 211 c0 -5 7 -14 15 -21 14 -12 14 -15 -1 -31 -10 -11 -14 -22
-10 -27 4 -4 13 1 20 10 12 16 14 16 31 0 17 -16 17 -16 10 3 -9 25 -9 35 1
60 7 19 7 19 -13 2 -18 -16 -21 -16 -26 -2 -7 16 -27 21 -27 6z"/>
</g>
</svg>
